<svg width="53" height="52" viewBox="0 0 53 52" fill="none" xmlns="http://www.w3.org/2000/svg">
<path d="M50.89 21.8011L42.3074 30.3725L37.4093 25.4719L41.1112 21.8011C41.4058 21.4574 41.3859 20.9454 41.0654 20.6254C40.7454 20.3058 40.2328 20.2859 39.8886 20.5802L36.1783 24.2425L33.7333 21.7922L42.3074 13.2208C42.6435 12.8831 42.6435 12.3377 42.3074 11.9999C41.9692 11.6642 41.4231 11.6642 41.0849 11.9999L31.8868 21.1864C31.7226 21.3488 31.6303 21.5703 31.6303 21.8011C31.6303 22.0319 31.7226 22.253 31.8868 22.4158L33.1178 23.6363L31.8868 24.8661C30.4315 23.4114 28.1524 23.1797 26.4338 24.3119L25.7578 23.6363C24.9454 22.8271 23.8448 22.3727 22.6973 22.3722C22.155 22.3722 21.617 22.472 21.1107 22.6669L19.6283 21.1864L20.2438 20.5802C20.408 20.4174 20.5003 20.1963 20.5003 19.9655C20.5003 19.7347 20.408 19.5131 20.2438 19.3508L11.6354 10.7794C11.2955 10.4421 10.746 10.4442 10.4086 10.7836C10.0708 11.1231 10.0729 11.6714 10.4129 12.0088L18.3799 19.9655L17.7644 20.5713L13.4298 24.8572L10.3697 21.7922C10.2067 21.6282 9.98531 21.536 9.75419 21.536C9.52306 21.536 9.30125 21.6282 9.1387 21.7922C8.80217 22.13 8.80217 22.6754 9.1387 23.0131L12.2073 26.0781L10.9763 27.2986L9.82319 28.5715L1.85611 20.5802C1.69356 20.4162 1.47174 20.324 1.24062 20.324C1.00949 20.324 0.7881 20.4162 0.625127 20.5802C0.28902 20.918 0.28902 21.4633 0.625127 21.8011L9.2077 30.3725C9.37152 30.5344 9.59291 30.6249 9.82319 30.6236C10.0539 30.6249 10.2753 30.5344 10.4391 30.3725L11.6354 29.1516L12.8575 30.3725C11.1655 32.0631 11.1655 34.803 12.8575 36.4936L14.4876 38.0954C14.6502 38.2594 14.872 38.3516 15.1031 38.3516C15.3342 38.3516 15.5556 38.2594 15.7186 38.0954C16.0547 37.7576 16.0547 37.2123 15.7186 36.8745L14.1147 35.2731C13.6249 34.7856 13.3498 34.1236 13.3498 33.4333C13.3498 32.7425 13.6249 32.0804 14.1147 31.5934L14.7217 30.9872L20.8592 24.8572C21.8896 23.8811 23.5049 23.8811 24.5353 24.8572L30.0488 30.3636C30.3435 30.7073 30.3236 31.2193 30.0035 31.5393C29.6831 31.8589 29.1705 31.8788 28.8268 31.5845L24.8299 27.5933C24.4878 27.2538 23.9346 27.2555 23.5947 27.5975C23.2547 27.9395 23.2564 28.4916 23.5989 28.8311L27.5953 32.8228C28.3387 33.5706 29.4604 33.7964 30.4353 33.3939C31.4106 32.9915 32.0456 32.0407 32.043 30.9872C32.0422 30.2985 31.7679 29.6382 31.2798 29.1516L27.7084 25.5844C28.704 25.1337 29.874 25.3324 30.6643 26.0866L38.0248 33.4375C38.5095 33.9253 38.7808 34.5857 38.7791 35.2731C38.7808 35.9605 38.5095 36.6204 38.0248 37.1083L35.5713 39.5586L33.0573 42.0609L31.2798 43.8445L26.3733 48.7447C26.035 49.0803 25.489 49.0803 25.1507 48.7447C24.8146 48.4073 24.8146 47.8619 25.1507 47.5242L30.7079 42C30.9551 41.7886 31.0631 41.4563 30.9869 41.1401C30.9107 40.8239 30.6635 40.577 30.3469 40.5009C30.0298 40.4248 29.6975 40.5322 29.4854 40.7795L23.9629 46.2859C23.6192 46.5801 23.1066 46.5603 22.7861 46.2407C22.4661 45.9206 22.4462 45.4087 22.7409 45.065L28.2544 39.5586C28.4187 39.3962 28.511 39.1747 28.511 38.9439C28.511 38.7131 28.4187 38.492 28.2544 38.3292C27.9162 37.9935 27.3701 37.9935 27.0319 38.3292L21.5095 43.8445C21.1717 44.1801 20.6256 44.1801 20.2874 43.8445C20.1231 43.6817 20.0308 43.4606 20.0308 43.2298C20.0308 42.999 20.1231 42.7774 20.2874 42.6151L25.8009 37.1083C25.9652 36.9459 26.0575 36.7244 26.0575 36.4936C26.0575 36.2628 25.9652 36.0417 25.8009 35.8789C25.4627 35.5432 24.9167 35.5432 24.5784 35.8789L19.0564 41.3942C18.7165 41.7311 18.167 41.7294 17.8296 41.39C17.4918 41.0505 17.494 40.5017 17.8339 40.1648L24.5005 33.5153C24.8405 33.1758 24.8405 32.6254 24.5005 32.2859C24.1606 31.9464 23.6095 31.9464 23.2696 32.2859L16.5682 38.9612C15.5539 39.9754 15.5539 41.6182 16.5682 42.6324C17.016 43.089 17.6192 43.3613 18.2584 43.3942C18.3359 44.7124 19.3916 45.7629 20.7119 45.8357C20.7852 47.1576 21.8422 48.2128 23.1654 48.286C23.1904 48.937 23.4596 49.5555 23.9198 50.0176C24.7012 50.7963 25.8898 50.9979 26.8846 50.5198L27.5953 51.2385C28.3256 51.9682 29.4194 52.1973 30.382 51.8219C31.3442 51.4465 31.9927 50.538 32.0342 49.5069C32.6873 49.487 33.3083 49.2173 33.768 48.7535C34.2184 48.302 34.4868 47.7013 34.5224 47.065C35.846 46.9923 36.9026 45.9367 36.9759 44.6147C38.0083 44.5737 38.918 43.9256 39.2939 42.9647C39.6702 42.0034 39.4408 40.9114 38.7097 40.1821L38.0942 39.5759L39.3252 38.3465C40.1354 37.5353 40.5905 36.4361 40.5909 35.29C40.5706 34.4331 40.2959 33.6015 39.8019 32.9006L41.1112 31.5934L41.7266 32.2081C42.0649 32.5438 42.6109 32.5438 42.9492 32.2081L52.121 23.0216C52.4571 22.6842 52.4571 22.1385 52.121 21.8011C51.9584 21.6371 51.7366 21.5449 51.5055 21.5449C51.2744 21.5449 51.053 21.6371 50.89 21.8011V21.8011ZM12.8837 27.9222L18.4062 22.4158L19.6283 23.6363L14.1147 29.1516L12.8837 27.9222ZM30.0488 49.9656C29.7106 50.3012 29.1646 50.3012 28.8268 49.9656L28.2113 49.3509L29.4422 48.13L30.0488 48.7362C30.2131 48.8985 30.3054 49.1201 30.3054 49.3509C30.3054 49.5817 30.2131 49.8032 30.0488 49.9656ZM32.5023 47.5153C32.1641 47.8509 31.618 47.8509 31.2798 47.5153L30.7079 46.9006L31.3234 46.2859L31.93 45.6797L32.5459 46.2859C32.7098 46.4487 32.802 46.6698 32.802 46.9006C32.802 47.1314 32.7098 47.3529 32.5459 47.5153H32.5023ZM34.9558 45.065C34.6176 45.4006 34.0715 45.4006 33.7333 45.065L33.1178 44.4503L34.3403 43.2298L34.9558 43.8445C35.2919 44.1823 35.2919 44.7276 34.9558 45.065V45.065ZM37.4093 42.6151C37.2463 42.7787 37.025 42.8709 36.7938 42.8709C36.5627 42.8709 36.3409 42.7787 36.1783 42.6151L35.5713 42L36.7765 40.7795L37.392 41.3942C37.7327 41.7269 37.7408 42.2727 37.4093 42.6151V42.6151ZM38.6314 31.5934L33.1178 26.0866L34.3403 24.8661L39.8628 30.3725L38.6314 31.5934Z" fill="#FFBB01"/>
<path d="M16.8333 13.8529H35.9013C36.38 13.8529 36.768 13.4652 36.768 12.9871V0.865806C36.768 0.387668 36.38 0 35.9013 0H16.8333C16.3546 0 15.9666 0.387668 15.9666 0.865806V12.9871C15.9666 13.4652 16.3546 13.8529 16.8333 13.8529ZM17.7 10.3897C18.6573 10.3897 19.4335 11.165 19.4335 12.1213H17.7V10.3897ZM35.0346 12.1213H33.3011C33.3011 11.165 34.0773 10.3897 35.0346 10.3897V12.1213ZM35.0346 3.46322C34.0773 3.46322 33.3011 2.68789 33.3011 1.73161H35.0346V3.46322ZM35.0346 5.19483V8.65806C33.1196 8.65806 31.5677 10.2087 31.5677 12.1213H21.1669C21.1669 10.2087 19.6146 8.65806 17.7 8.65806V5.19483C19.6146 5.19483 21.1669 3.64416 21.1669 1.73161H31.5677C31.5677 3.64416 33.1196 5.19483 35.0346 5.19483ZM17.7 1.73161H19.4335C19.4335 2.68789 18.6573 3.46322 17.7 3.46322V1.73161Z" fill="#FFBB01"/>
<path d="M26.3666 10.3896C28.281 10.3896 29.8331 8.83897 29.8331 6.92642C29.8331 5.01387 28.281 3.4632 26.3666 3.4632C24.4519 3.4632 22.9001 5.01387 22.9001 6.92642C22.9001 8.83897 24.4519 10.3896 26.3666 10.3896ZM26.3666 5.19481C27.3238 5.19481 28.0999 5.97014 28.0999 6.92642C28.0999 7.88269 27.3238 8.65803 26.3666 8.65803C25.4095 8.65803 24.6334 7.88269 24.6334 6.92642C24.6334 5.97014 25.4095 5.19481 26.3666 5.19481Z" fill="#FFBB01"/>
<path d="M33.3009 6.92641C33.3009 7.40455 32.9128 7.79222 32.4343 7.79222C31.9557 7.79222 31.5676 7.40455 31.5676 6.92641C31.5676 6.44828 31.9557 6.06061 32.4343 6.06061C32.9128 6.06061 33.3009 6.44828 33.3009 6.92641Z" fill="#FFBB01"/>
<path d="M21.1666 6.92641C21.1666 7.40455 20.7786 7.79222 20.3 7.79222C19.8214 7.79222 19.4333 7.40455 19.4333 6.92641C19.4333 6.44828 19.8214 6.06061 20.3 6.06061C20.7786 6.06061 21.1666 6.44828 21.1666 6.92641Z" fill="#FFBB01"/>
<path d="M52.2219 5.5845L48.755 0.38967C48.5938 0.149967 48.3242 0.00665283 48.0356 0.00665283C47.7469 0.00665283 47.4769 0.149967 47.3161 0.38967L43.8492 5.5845C43.7544 5.72528 43.7032 5.891 43.7019 6.06053V9.52375C43.7019 10.0019 44.09 10.3896 44.5686 10.3896C45.0473 10.3896 45.4354 10.0019 45.4354 9.52375V6.3201L48.0356 2.42398L50.6357 6.3201V15.5844C50.6357 16.0625 51.0238 16.4502 51.5025 16.4502C51.9811 16.4502 52.3692 16.0625 52.3692 15.5844V6.06053C52.3679 5.891 52.3167 5.72528 52.2219 5.5845Z" fill="#FFBB01"/>
<path d="M48.9022 12.1212V6.92641C48.9022 6.44828 48.5142 6.06061 48.0356 6.06061C47.557 6.06061 47.1689 6.44828 47.1689 6.92641V12.1212C47.1689 12.5994 47.557 12.9871 48.0356 12.9871C48.5142 12.9871 48.9022 12.5994 48.9022 12.1212Z" fill="#FFBB01"/>
<path d="M1.23195 7.79219H2.09868V18.1819C2.09868 18.66 2.48676 19.0477 2.96541 19.0477C3.44405 19.0477 3.83213 18.66 3.83213 18.1819V6.92638C3.83213 6.44824 3.44405 6.06057 2.96541 6.06057H2.91335L5.56559 2.35511L8.21783 6.06057H8.16578C7.68713 6.06057 7.29905 6.44824 7.29905 6.92638V8.65799C7.29905 9.13613 7.68713 9.5238 8.16578 9.5238C8.64443 9.5238 9.03251 9.13613 9.03251 8.65799V7.79219H9.89924C10.223 7.79049 10.5188 7.60913 10.6665 7.32124C10.8142 7.03376 10.7888 6.68752 10.6013 6.42415L6.26769 0.363507C6.10434 0.1386 5.84364 0.00543213 5.56559 0.00543213C5.28755 0.00543213 5.02643 0.1386 4.86349 0.363507L0.529846 6.42415C0.341942 6.68752 0.316972 7.03376 0.464672 7.32124C0.612371 7.60913 0.908194 7.79049 1.23195 7.79219Z" fill="#FFBB01"/>
<path d="M5.56494 12.1213V14.7187C5.56494 15.1968 5.95297 15.5845 6.43156 15.5845C6.91015 15.5845 7.29818 15.1968 7.29818 14.7187V12.1213C7.29818 11.6432 6.91015 11.2555 6.43156 11.2555C5.95297 11.2555 5.56494 11.6432 5.56494 12.1213Z" fill="#FFBB01"/>
</svg>
