<svg width="53" height="52" viewBox="0 0 53 52" fill="none" xmlns="http://www.w3.org/2000/svg">
<path d="M44.9189 38.1709L41.7994 41.2385L39.9311 39.3929C39.5855 39.0531 39.0253 39.0531 38.6798 39.3929C38.3343 39.7326 38.3343 40.2835 38.6798 40.6233L41.1737 43.0757C41.339 43.2398 41.5644 43.3321 41.7994 43.3321C42.0343 43.3321 42.2593 43.2398 42.425 43.0757L46.2055 39.3929C46.4568 39.1813 46.5665 38.8488 46.489 38.5323C46.4116 38.2154 46.1603 37.9683 45.8384 37.8921C45.5166 37.8159 45.1784 37.9238 44.9628 38.1709H44.9189Z" fill="#FFBB01"/>
<path d="M46.2064 32.1487V29.4624C46.2064 28.9838 45.8118 28.5958 45.3251 28.5958H42.6811V27.7293C42.6811 26.2937 43.8649 25.1297 45.3251 25.1297C45.8118 25.1297 46.2064 24.7417 46.2064 24.2631C46.2064 23.7846 45.8118 23.3966 45.3251 23.3966C42.8915 23.3966 40.9184 25.3366 40.9184 27.7293V28.5958H38.2744C37.7877 28.5958 37.3931 28.9838 37.3931 29.4624V32.1487C32.8732 34.1856 30.4069 39.043 31.4669 43.8187C32.5272 48.5948 36.8276 52 41.7997 52C46.7714 52 51.0722 48.5948 52.1326 43.8187C53.1925 39.043 50.7262 34.1856 46.2064 32.1487V32.1487ZM42.6811 50.2593V49.3928C42.6811 48.9142 42.2864 48.5262 41.7997 48.5262C41.313 48.5262 40.9184 48.9142 40.9184 49.3928V50.2593C36.7157 49.8633 33.3892 46.5926 32.9864 42.4605H33.8677C34.3544 42.4605 34.7491 42.0725 34.7491 41.5939C34.7491 41.1154 34.3544 40.7274 33.8677 40.7274H32.9864C33.3186 37.491 35.466 34.7103 38.5477 33.5264C38.8868 33.3978 39.1105 33.0779 39.1118 32.7204V30.3289H44.3998V32.7204C44.4007 33.0779 44.6245 33.3978 44.9636 33.5264C48.0797 34.6845 50.2654 37.4702 50.6131 40.7274H49.7317C49.245 40.7274 48.8504 41.1154 48.8504 41.5939C48.8504 42.0725 49.245 42.4605 49.7317 42.4605H50.6131C50.2103 46.5926 46.8838 49.8633 42.6811 50.2593V50.2593Z" fill="#FFBB01"/>
<path d="M28.7645 45.0601C28.5794 45.0601 4.78338 45.0601 4.78338 45.0601C3.32324 45.0601 2.13938 43.8961 2.13938 42.4604V14.7312H47.9688V30.7275C47.9688 31.206 48.3634 31.594 48.8501 31.594C49.3368 31.594 49.7314 31.206 49.7314 30.7275V8.66539C49.7314 6.27268 47.7583 4.3327 45.3248 4.3327H43.5621V3.46616C43.5621 2.98761 43.1675 2.59962 42.6808 2.59962C42.194 2.59962 41.7994 2.98761 41.7994 3.46616V6.93232C41.7994 7.8894 41.0102 8.66539 40.0368 8.66539C39.0633 8.66539 38.2741 7.8894 38.2741 6.93232V3.46616C38.2741 2.50907 39.0633 1.73308 40.0368 1.73308C40.5235 1.73308 40.9181 1.34508 40.9181 0.866539C40.9181 0.387996 40.5235 0 40.0368 0C38.0899 0 36.5114 1.55199 36.5114 3.46616V4.3327H28.5794V3.46616C28.5794 2.98761 28.1848 2.59962 27.6981 2.59962C27.2114 2.59962 26.8167 2.98761 26.8167 3.46616V6.93232C26.8167 7.8894 26.0275 8.66539 25.0541 8.66539C24.0806 8.66539 23.2914 7.8894 23.2914 6.93232V3.46616C23.2914 2.50907 24.0806 1.73308 25.0541 1.73308C25.5408 1.73308 25.9354 1.34508 25.9354 0.866539C25.9354 0.387996 25.5408 0 25.0541 0C23.1072 0 21.5287 1.55199 21.5287 3.46616V4.3327H13.5967V3.46616C13.5967 2.98761 13.2021 2.59962 12.7154 2.59962C12.2287 2.59962 11.8341 2.98761 11.8341 3.46616V6.93232C11.8341 7.8894 11.0448 8.66539 10.0714 8.66539C9.09796 8.66539 8.30872 7.8894 8.30872 6.93232V3.46616C8.30872 2.50907 9.09796 1.73308 10.0714 1.73308C10.5581 1.73308 10.9527 1.34508 10.9527 0.866539C10.9527 0.387996 10.5581 0 10.0714 0C8.12453 0 6.54605 1.55199 6.54605 3.46616V4.3327H4.78338C2.34981 4.3327 0.376709 6.27268 0.376709 8.66539V42.4604C0.376709 44.8531 2.34981 46.7931 4.78338 46.7931H25.0541C29.6811 46.7931 29.6811 46.7931 29.6811 45.9266C29.6824 45.6964 29.5903 45.4747 29.4255 45.3114C29.2507 45.1404 29.011 45.0491 28.7645 45.0601ZM4.78338 6.06578H6.54605V6.93232C6.54605 8.84649 8.12453 10.3985 10.0714 10.3985C12.0182 10.3985 13.5967 8.84649 13.5967 6.93232V6.06578H21.5287V6.93232C21.5287 8.84649 23.1072 10.3985 25.0541 10.3985C27.0009 10.3985 28.5794 8.84649 28.5794 6.93232V6.06578H36.5114V6.93232C36.5114 8.84649 38.0899 10.3985 40.0368 10.3985C41.9836 10.3985 43.5621 8.84649 43.5621 6.93232V6.06578H45.3248C46.7849 6.06578 47.9688 7.22977 47.9688 8.66539V12.9981H2.13938V8.66539C2.13938 7.22977 3.32324 6.06578 4.78338 6.06578Z" fill="#FFBB01"/>
<path d="M16.2411 18.1974C16.2411 17.7188 15.8465 17.3308 15.3597 17.3308H8.30907C7.82236 17.3308 7.42773 17.7188 7.42773 18.1974V25.1297C7.42773 25.6082 7.82236 25.9962 8.30907 25.9962H15.3597C15.8465 25.9962 16.2411 25.6082 16.2411 25.1297V18.1974ZM14.4784 24.2631H9.1904V19.0639H14.4784V24.2631Z" fill="#FFBB01"/>
<path d="M15.3597 31.1955C15.8465 31.1955 16.2411 30.8075 16.2411 30.3289C16.2411 29.8504 15.8465 29.4624 15.3597 29.4624H8.30907C7.82236 29.4624 7.42773 29.8504 7.42773 30.3289V37.2612C7.42773 37.7398 7.82236 38.1278 8.30907 38.1278H15.3597C15.8465 38.1278 16.2411 37.7398 16.2411 37.2612V33.7951C16.2411 33.3166 15.8465 32.9286 15.3597 32.9286C14.873 32.9286 14.4784 33.3166 14.4784 33.7951V36.3947H9.1904V31.1955H15.3597Z" fill="#FFBB01"/>
<path d="M20.6477 29.4624C20.161 29.4624 19.7664 29.8504 19.7664 30.3289V37.2612C19.7664 37.7398 20.161 38.1278 20.6477 38.1278H27.6984C28.1851 38.1278 28.5797 37.7398 28.5797 37.2612V30.3289C28.5797 29.8504 28.1851 29.4624 27.6984 29.4624H20.6477ZM26.817 36.3947H21.529V31.1955H26.817V36.3947Z" fill="#FFBB01"/>
<path d="M40.037 24.2631C40.5237 24.2631 40.9183 23.8751 40.9183 23.3966V18.1974C40.9183 17.7188 40.5237 17.3308 40.037 17.3308H32.9863C32.4996 17.3308 32.105 17.7188 32.105 18.1974V25.1297C32.105 25.6082 32.4996 25.9962 32.9863 25.9962C33.473 25.9962 33.8676 25.6082 33.8676 25.1297V19.0639H39.1556V23.3966C39.1556 23.8751 39.5503 24.2631 40.037 24.2631Z" fill="#FFBB01"/>
<path d="M28.3241 17.5822C28.1584 17.418 27.9334 17.3257 27.6984 17.3257C27.4634 17.3257 27.2379 17.418 27.0727 17.5822L24.1731 20.4416L21.2734 17.5822C20.9279 17.2424 20.3676 17.2424 20.022 17.5822C19.6765 17.9219 19.6765 18.4728 20.022 18.8126L22.9302 21.6635L20.022 24.5145C19.855 24.6769 19.7612 24.8987 19.7612 25.1297C19.7612 25.3607 19.855 25.5824 20.022 25.7449C20.1873 25.9091 20.4128 26.0013 20.6477 26.0013C20.8827 26.0013 21.1078 25.9091 21.2734 25.7449L24.1731 22.8855L27.0727 25.7449C27.2379 25.9091 27.4634 26.0013 27.6984 26.0013C27.9334 26.0013 28.1584 25.9091 28.3241 25.7449C28.4911 25.5824 28.5849 25.3607 28.5849 25.1297C28.5849 24.8987 28.4911 24.6769 28.3241 24.5145L25.4159 21.6635L28.3241 18.8126C28.4911 18.6501 28.5849 18.4284 28.5849 18.1974C28.5849 17.9663 28.4911 17.7446 28.3241 17.5822V17.5822Z" fill="#FFBB01"/>
</svg>
