<svg width="20" height="20" viewBox="0 0 20 20" fill="none" xmlns="http://www.w3.org/2000/svg">
<path d="M2.92969 20H17.0703C18.6858 20 20 18.6858 20 17.0703V2.92969C20 1.31424 18.6858 0 17.0703 0H2.92969C1.31424 0 0 1.31424 0 2.92969V17.0703C0 18.6858 1.31424 20 2.92969 20ZM1.17188 2.92969C1.17188 1.96045 1.96045 1.17188 2.92969 1.17188H17.0703C18.0396 1.17188 18.8281 1.96045 18.8281 2.92969V17.0703C18.8281 18.0396 18.0396 18.8281 17.0703 18.8281H2.92969C1.96045 18.8281 1.17188 18.0396 1.17188 17.0703V2.92969Z" fill="white"/>
<path d="M10 15.2733C12.9077 15.2733 15.2734 12.9076 15.2734 9.9999C15.2734 7.09219 12.9077 4.72647 10 4.72647C7.09229 4.72647 4.72656 7.09219 4.72656 9.9999C4.72656 12.9076 7.09229 15.2733 10 15.2733ZM10 5.89834C12.2617 5.89834 14.1016 7.73824 14.1016 9.9999C14.1016 12.2616 12.2617 14.1015 10 14.1015C7.73834 14.1015 5.89844 12.2616 5.89844 9.9999C5.89844 7.73824 7.73834 5.89834 10 5.89834Z" fill="white"/>
<path d="M15.5264 5.61373C16.484 5.61373 17.2632 4.83461 17.2632 3.877C17.2632 2.91938 16.484 2.14026 15.5264 2.14026C14.5687 2.14026 13.7896 2.91938 13.7896 3.877C13.7896 4.83461 14.5687 5.61373 15.5264 5.61373ZM15.5264 3.29809C15.8455 3.29809 16.1053 3.55784 16.1053 3.877C16.1053 4.19615 15.8455 4.45591 15.5264 4.45591C15.2072 4.45591 14.9474 4.19615 14.9474 3.877C14.9474 3.55784 15.2072 3.29809 15.5264 3.29809Z" fill="white"/>
</svg>
