<svg width="52" height="52" viewBox="0 0 52 52" fill="none" xmlns="http://www.w3.org/2000/svg">
<path d="M51.9012 12.3195C51.7222 11.6538 51.2856 11.0863 50.6881 10.7423C50.0902 10.3966 49.3793 10.303 48.7124 10.482C48.0464 10.6615 47.479 11.0978 47.1349 11.6953L46.7016 12.4494C46.2899 12.2128 45.764 12.3521 45.5232 12.7617L43.322 16.514L42.568 16.0807C42.3682 15.9651 42.1304 15.9338 41.9079 15.9939C41.6849 16.0544 41.4953 16.2009 41.3806 16.4014C41.1458 16.8157 41.2888 17.3422 41.7014 17.58L42.4554 18.0133L35.0893 30.7793L33.2694 35.6416L32.4028 37.262C31.8955 38.1447 31.9496 39.242 32.5416 40.0702L30.5918 42.462L30.0459 41.093C29.7996 40.4828 29.2297 40.0647 28.5742 40.0135C27.9183 39.9618 27.29 40.286 26.9519 40.8501L26.64 41.3786L26.3455 37.912C26.2778 37.0918 25.6427 36.4325 24.826 36.3335C24.0089 36.2349 23.2354 36.7245 22.9744 37.5049L20.8426 43.9008C20.6936 44.3531 20.9373 44.8406 21.3884 44.993C21.473 45.0323 21.564 45.056 21.6571 45.062C22.0295 45.0632 22.3612 44.8258 22.4805 44.4729L24.6034 38.077L24.9068 41.5953C24.9695 42.346 25.509 42.9702 26.2427 43.1403C26.9764 43.3104 27.7356 42.9871 28.1219 42.3409L28.4426 41.812L28.98 43.1729C29.2081 43.7463 29.7239 44.1555 30.3345 44.2465C30.9451 44.3375 31.5578 44.0967 31.9437 43.6147L33.9629 41.0583C34.1864 41.1167 34.4165 41.1459 34.6476 41.145C35.5764 41.1522 36.4387 40.663 36.9093 39.862L37.7759 38.4147L41.0777 34.4021L48.5216 21.48L49.2756 21.9133C49.4766 22.0284 49.623 22.2184 49.6827 22.4423C49.7428 22.6645 49.7115 22.9014 49.5964 23.1008L46.13 29.1069C45.9992 29.3041 45.9548 29.5462 46.0073 29.7772C46.0597 30.0079 46.204 30.2072 46.4071 30.3286C46.6069 30.4446 46.8447 30.4759 47.0672 30.4158C47.2902 30.3553 47.4798 30.2089 47.5945 30.0083L51.0609 24.0021C51.4066 23.4042 51.5001 22.6932 51.3207 22.0263C51.1413 21.3602 50.705 20.7928 50.1075 20.4487L49.3535 20.0154L51.52 16.2626C51.7565 15.8509 51.6173 15.3253 51.2081 15.0841L51.6414 14.33C51.9964 13.7227 52.0904 12.9974 51.9012 12.3195V12.3195ZM48.6341 12.562C48.7488 12.3614 48.9392 12.2145 49.1631 12.1549C49.3856 12.0998 49.6209 12.1307 49.8215 12.2416C50.0225 12.3563 50.1689 12.5467 50.229 12.7702C50.284 12.9928 50.2531 13.228 50.1422 13.4286L49.7089 14.1827L48.2008 13.3161L48.6341 12.562ZM36.8225 36.7596L36.3892 36.5083L35.1067 35.7626L36.3372 32.4695L39.0669 34.0467L36.8225 36.7596ZM34.2228 39.264C33.8567 39.0088 33.7442 38.5179 33.9629 38.1286L34.3962 37.3749L35.9039 38.2416L35.4706 38.9868C35.3492 39.1976 35.1452 39.3474 34.9078 39.4003C34.6704 39.4527 34.4221 39.4037 34.2228 39.264ZM40.0549 32.6256L37.0565 30.8923L43.9893 18.88L46.9877 20.6133L40.0549 32.6256ZM47.8543 19.114L44.8559 17.3807L46.5891 14.382L49.5875 16.1154L47.8543 19.114Z" fill="#FFBB01"/>
<path d="M13.6709 38.8353L10.6039 41.8949L8.76685 40.0575C8.4288 39.7215 7.88301 39.7215 7.54497 40.0575C7.38081 40.2204 7.28857 40.4417 7.28857 40.6728C7.28857 40.9038 7.38081 41.1256 7.54497 41.2881L9.38202 43.1255C9.70695 43.448 10.1461 43.6286 10.6039 43.6282C11.0642 43.6308 11.5072 43.4501 11.8342 43.1255L14.8928 40.0575C15.1872 39.7134 15.1673 39.201 14.8475 38.881C14.5272 38.5607 14.0148 38.5408 13.6709 38.8353Z" fill="#FFBB01"/>
<path d="M3.46289 41.1667C3.46289 45.2355 6.76086 48.5333 10.829 48.5333C14.8971 48.5333 18.195 45.2355 18.195 41.1667C18.195 40.6881 17.807 40.3 17.3284 40.3C16.8499 40.3 16.4618 40.6881 16.4618 41.1667C16.4618 44.2779 13.9399 46.8 10.829 46.8C7.71801 46.8 5.19608 44.2779 5.19608 41.1667C5.19608 38.0555 7.71801 35.5333 10.829 35.5333C12.0485 35.5299 13.2354 35.9256 14.2086 36.6603C14.5915 36.9476 15.1349 36.8697 15.4217 36.4867C15.7091 36.1038 15.6316 35.5608 15.2487 35.2735C13.0166 33.5994 10.0301 33.3303 7.53479 34.5778C5.0391 35.8257 3.46289 38.3767 3.46289 41.1667Z" fill="#FFBB01"/>
<path d="M31.1945 6.93328C31.6731 6.93328 32.0611 6.54565 32.0611 6.06662C32.0611 5.588 31.6731 5.19995 31.1945 5.19995H8.66298C8.18441 5.19995 7.79639 5.588 7.79639 6.06662V9.53328C7.79639 10.0123 8.18441 10.4 8.66298 10.4H31.1945C31.6731 10.4 32.0611 10.0123 32.0611 9.53328C32.0611 9.05467 31.6731 8.66662 31.1945 8.66662H9.52958V6.93328H31.1945Z" fill="#FFBB01"/>
<path d="M11.2626 12.1334C10.784 12.1334 10.396 12.5214 10.396 13C10.396 13.4791 10.784 13.8667 11.2626 13.8667H28.5945C29.0731 13.8667 29.4611 13.4791 29.4611 13C29.4611 12.5214 29.0731 12.1334 28.5945 12.1334H11.2626Z" fill="#FFBB01"/>
<path d="M33.7943 18.2H14.7291C14.2506 18.2 13.8625 18.588 13.8625 19.0666C13.8625 19.5457 14.2506 19.9333 14.7291 19.9333H33.7943C34.2728 19.9333 34.6609 19.5457 34.6609 19.0666C34.6609 18.588 34.2728 18.2 33.7943 18.2Z" fill="#FFBB01"/>
<path d="M25.1274 24.2667C25.1274 23.7881 24.7393 23.4 24.2608 23.4H6.92885C6.45028 23.4 6.06226 23.7881 6.06226 24.2667C6.06226 24.7457 6.45028 25.1334 6.92885 25.1334H24.2608C24.7393 25.1334 25.1274 24.7457 25.1274 24.2667Z" fill="#FFBB01"/>
<path d="M33.7932 23.4H27.7278C27.2493 23.4 26.8613 23.7881 26.8613 24.2667C26.8613 24.7457 27.2493 25.1334 27.7278 25.1334H33.7932C34.2717 25.1334 34.6597 24.7457 34.6597 24.2667C34.6597 23.7881 34.2717 23.4 33.7932 23.4Z" fill="#FFBB01"/>
<path d="M15.5948 29.4667C16.0734 29.4667 16.4614 29.079 16.4614 28.6C16.4614 28.1214 16.0734 27.7333 15.5948 27.7333H6.92885C6.45028 27.7333 6.06226 28.1214 6.06226 28.6C6.06226 29.079 6.45028 29.4667 6.92885 29.4667H15.5948Z" fill="#FFBB01"/>
<path d="M19.0618 29.4667H25.1272C25.6057 29.4667 25.9937 29.079 25.9937 28.6C25.9937 28.1214 25.6057 27.7333 25.1272 27.7333H19.0618C18.5833 27.7333 18.1953 28.1214 18.1953 28.6C18.1953 29.079 18.5833 29.4667 19.0618 29.4667Z" fill="#FFBB01"/>
<path d="M38.9936 39.8667C38.5151 39.8667 38.1271 40.2547 38.1271 40.7333V49.4C38.1271 49.879 37.739 50.2667 37.2605 50.2667H2.59661C2.11804 50.2667 1.73002 49.879 1.73002 49.4V2.6C1.73002 2.12139 2.11804 1.73333 2.59661 1.73333H37.2605C37.739 1.73333 38.1271 2.12139 38.1271 2.6V18.8762C38.1271 19.3549 38.5151 19.7429 38.9936 19.7429C39.4722 19.7429 39.8602 19.3549 39.8602 18.8762V2.6C39.8602 1.16416 38.6962 0 37.2605 0H2.59661C1.16089 0 -0.00317383 1.16416 -0.00317383 2.6V49.4C-0.00317383 50.8363 1.16089 52 2.59661 52H37.2605C38.6962 52 39.8602 50.8363 39.8602 49.4V40.7333C39.8602 40.2547 39.4722 39.8667 38.9936 39.8667Z" fill="#FFBB01"/>
</svg>
