<svg width="16" height="19" viewBox="0 0 16 19" fill="none" xmlns="http://www.w3.org/2000/svg">
<path d="M13.469 11.2298C13.1198 10.8226 12.6986 10.6048 12.2521 10.6048C11.8093 10.6048 11.3845 10.8185 11.0208 11.2258L9.88315 12.496C9.78954 12.4395 9.69593 12.3871 9.60593 12.3347C9.47632 12.2621 9.35391 12.1935 9.2495 12.121C8.18382 11.3629 7.21535 10.375 6.28648 9.09677C5.83645 8.45968 5.53402 7.92339 5.31441 7.37903C5.60963 7.07661 5.88325 6.7621 6.14967 6.45968C6.25048 6.34677 6.35128 6.22984 6.45209 6.11693C7.20815 5.27016 7.20815 4.17339 6.45209 3.32661L5.46922 2.22581C5.35761 2.10081 5.2424 1.97177 5.13439 1.84274C4.91838 1.59274 4.69156 1.33468 4.45754 1.09274C4.10832 0.705645 3.69069 0.5 3.25145 0.5C2.81222 0.5 2.38739 0.705645 2.02736 1.09274C2.02376 1.09677 2.02376 1.09677 2.02016 1.10081L0.796072 2.48387C0.335238 3 0.0724188 3.62903 0.0148146 4.35887C-0.0715918 5.53629 0.238031 6.63306 0.475649 7.35081C1.05889 9.1129 1.93016 10.746 3.22985 12.496C4.80677 14.6048 6.70411 16.2702 8.87147 17.4435C9.69953 17.8831 10.8048 18.4032 12.0397 18.4919C12.1153 18.496 12.1945 18.5 12.2665 18.5C13.0982 18.5 13.7966 18.1653 14.3439 17.5C14.3475 17.4919 14.3547 17.4879 14.3583 17.4798C14.5455 17.2258 14.7615 16.996 14.9883 16.75C15.1431 16.5847 15.3015 16.4113 15.4564 16.2298C15.8128 15.8145 16 15.3306 16 14.8347C16 14.3347 15.8092 13.8548 15.4456 13.4516L13.469 11.2298ZM14.7579 15.4758C14.7543 15.4758 14.7543 15.4798 14.7579 15.4758C14.6175 15.6452 14.4735 15.7984 14.3187 15.9677C14.0847 16.2177 13.847 16.4798 13.6238 16.7742C13.2602 17.2097 12.8318 17.4153 12.2701 17.4153C12.2161 17.4153 12.1585 17.4153 12.1045 17.4113C11.0352 17.3347 10.0416 16.8669 9.2963 16.4677C7.25855 15.3629 5.46922 13.7944 3.98231 11.8065C2.75462 10.1492 1.93376 8.61693 1.39012 6.97177C1.05529 5.96774 0.932883 5.18548 0.986887 4.44758C1.02289 3.97581 1.1849 3.58468 1.48372 3.25L2.71141 1.875C2.88783 1.68952 3.07504 1.58871 3.25866 1.58871C3.48547 1.58871 3.66909 1.74194 3.78429 1.87097C3.78789 1.875 3.79149 1.87903 3.79509 1.88306C4.01471 2.1129 4.22353 2.35081 4.44314 2.60484C4.55475 2.73387 4.66996 2.8629 4.78517 2.99597L5.76804 4.09677C6.14967 4.52419 6.14967 4.91935 5.76804 5.34677C5.66363 5.46371 5.56283 5.58064 5.45842 5.69355C5.156 6.04032 4.86797 6.3629 4.55475 6.67742C4.54755 6.68548 4.54035 6.68952 4.53675 6.69758C4.22713 7.04435 4.28473 7.38306 4.34954 7.6129C4.35314 7.625 4.35674 7.6371 4.36034 7.64919C4.61596 8.34274 4.97598 8.99597 5.52322 9.77419L5.52682 9.77823C6.5205 11.1492 7.56817 12.2177 8.72386 13.0363C8.87147 13.1411 9.02268 13.2258 9.16669 13.3065C9.2963 13.379 9.41871 13.4476 9.52312 13.5202C9.53752 13.5282 9.55192 13.5403 9.56632 13.5484C9.68873 13.6169 9.80394 13.6492 9.92275 13.6492C10.2216 13.6492 10.4088 13.4395 10.47 13.371L11.7013 11.9919C11.8237 11.8548 12.0181 11.6895 12.2449 11.6895C12.4681 11.6895 12.6518 11.8468 12.7634 11.9839C12.767 11.9879 12.767 11.9879 12.7706 11.9919L14.7543 14.2137C15.1251 14.625 15.1251 15.0484 14.7579 15.4758Z" fill="#949494"/>
<path d="M8.63526 4.84874C9.52001 5.01855 10.3237 5.49711 10.9653 6.23038C11.607 6.96365 12.0223 7.88217 12.1743 8.89331C12.2114 9.14803 12.4039 9.32556 12.6234 9.32556C12.6504 9.32556 12.6741 9.3217 12.7011 9.31784C12.951 9.27153 13.1164 9.00138 13.0759 8.71579C12.8936 7.49238 12.387 6.37703 11.6137 5.49325C10.8404 4.60946 9.86446 4.03056 8.79398 3.82216C8.54408 3.77585 8.31108 3.96496 8.26718 4.24669C8.22328 4.52842 8.38537 4.80243 8.63526 4.84874Z" fill="#949494"/>
<path d="M15.9699 8.56621C15.6694 6.55165 14.8386 4.71847 13.5622 3.25964C12.2857 1.80082 10.6817 0.851423 8.91893 0.507943C8.67241 0.457772 8.4394 0.650738 8.3955 0.932469C8.35498 1.21806 8.52045 1.48435 8.77034 1.53452C10.344 1.83941 11.7792 2.69232 12.9206 3.99291C14.062 5.29737 14.8049 6.93758 15.0717 8.73602C15.1088 8.99074 15.3013 9.16827 15.5208 9.16827C15.5478 9.16827 15.5714 9.16441 15.5985 9.16055C15.845 9.1181 16.0138 8.84794 15.9699 8.56621Z" fill="#949494"/>
</svg>
