<svg width="53" height="52" viewBox="0 0 53 52" fill="none" xmlns="http://www.w3.org/2000/svg">
<path d="M50.2994 37.0588V34.6666H51.1659C51.405 34.6683 51.6339 34.5709 51.7985 34.3979C51.9458 34.2333 52.0291 34.0208 52.0325 33.7999L50.4813 4.33338C50.3336 1.94836 48.3559 0.0893555 45.9665 0.0893555C43.5771 0.0893555 41.5994 1.94836 41.4518 4.33338L39.9006 33.7999C39.8934 34.0361 39.9772 34.2654 40.1346 34.4415C40.3064 34.5985 40.5344 34.6797 40.7671 34.6666H41.6337V37.0588L39.9958 40.3435C39.8722 40.5885 39.8722 40.878 39.9958 41.1234L45.1952 51.5233C45.2375 51.619 45.2997 51.7045 45.3771 51.7747C45.4782 51.8682 45.6001 51.9368 45.7325 51.974H46.209C46.3418 51.9368 46.4637 51.8682 46.5644 51.7747C46.6423 51.7045 46.704 51.619 46.7464 51.5233L51.9458 41.1234C52.0693 40.878 52.0693 40.5885 51.9458 40.3435L50.2994 37.0588ZM41.6769 32.9333L42.0412 26H49.8919L50.2994 32.9333H41.6769ZM43.1849 4.37697C43.1849 2.84042 44.4302 1.59459 45.9665 1.59459C47.5029 1.59459 48.7482 2.84042 48.7482 4.37697L49.7967 24.3102H42.1364L42.2316 22.5769H47.0582C47.5372 22.5769 47.9248 22.1888 47.9248 21.7102C47.9248 21.2312 47.5372 20.8436 47.0582 20.8436H42.3183L43.1849 4.37697ZM48.5662 34.6666V36.3999H43.3668V34.6666H48.5662ZM46.8331 47.4588V41.5999H47.6997C48.1782 41.5999 48.5662 41.2118 48.5662 40.7332C48.5662 40.2546 48.1782 39.8666 47.6997 39.8666H44.2334C43.7548 39.8666 43.3668 40.2546 43.3668 40.7332C43.3668 41.2118 43.7548 41.5999 44.2334 41.5999H45.1V47.4588L41.7378 40.7332L43.0376 38.1332H48.8954L50.1953 40.7332L46.8331 47.4588Z" fill="#FFBB01"/>
<path d="M29.5008 11.2666C29.9793 11.2666 30.3674 10.8786 30.3674 10.4C30.3674 9.92138 29.9793 9.53333 29.5008 9.53333H6.97008C6.49152 9.53333 6.10352 9.92138 6.10352 10.4V13.8666C6.10352 14.3452 6.49152 14.7333 6.97008 14.7333H29.5008C29.9793 14.7333 30.3674 14.3452 30.3674 13.8666C30.3674 13.388 29.9793 13 29.5008 13H7.83665V11.2666H29.5008Z" fill="#FFBB01"/>
<path d="M30.3684 19.0666C30.3684 18.588 29.9804 18.2 29.5018 18.2H10.4374C9.95881 18.2 9.5708 18.588 9.5708 19.0666C9.5708 19.5452 9.95881 19.9333 10.4374 19.9333H29.5018C29.9804 19.9333 30.3684 19.5452 30.3684 19.0666Z" fill="#FFBB01"/>
<path d="M5.23706 23.3999C5.23706 23.8785 5.62507 24.2665 6.10363 24.2665H19.9687C20.4472 24.2665 20.8352 23.8785 20.8352 23.3999C20.8352 22.9213 20.4472 22.5332 19.9687 22.5332H6.10363C5.62507 22.5332 5.23706 22.9213 5.23706 23.3999Z" fill="#FFBB01"/>
<path d="M25.1687 22.5332C24.6902 22.5332 24.3022 22.9213 24.3022 23.3999C24.3022 23.8785 24.6902 24.2665 25.1687 24.2665H28.6345C29.113 24.2665 29.501 23.8785 29.501 23.3999C29.501 22.9213 29.113 22.5332 28.6345 22.5332H25.1687Z" fill="#FFBB01"/>
<path d="M17.369 27.7332C17.369 27.2546 16.981 26.8666 16.5024 26.8666H6.10363C5.62507 26.8666 5.23706 27.2546 5.23706 27.7332C5.23706 28.2118 5.62507 28.5999 6.10363 28.5999H16.5024C16.981 28.5999 17.369 28.2118 17.369 27.7332Z" fill="#FFBB01"/>
<path d="M16.5024 32.0666C16.5024 31.588 16.1144 31.2 15.6359 31.2H6.10363C5.62507 31.2 5.23706 31.588 5.23706 32.0666C5.23706 32.5452 5.62507 32.9333 6.10363 32.9333H15.6359C16.1144 32.9333 16.5024 32.5452 16.5024 32.0666Z" fill="#FFBB01"/>
<path d="M6.10352 35.5332C5.62502 35.5332 5.23706 35.9213 5.23706 36.3999C5.23706 36.8785 5.62502 37.2665 6.10352 37.2665H12.1687C12.6472 37.2665 13.0352 36.8785 13.0352 36.3999C13.0352 35.9213 12.6472 35.5332 12.1687 35.5332H6.10352Z" fill="#FFBB01"/>
<path d="M33.8344 0H2.63803C1.20235 0 0.0383301 1.16416 0.0383301 2.59999V42.4665C0.0383301 43.9023 1.20235 45.0665 2.63803 45.0665H17.3696C17.8482 45.0665 18.2362 44.6784 18.2362 44.1998C18.2362 43.7212 17.8482 43.3331 17.3696 43.3331H2.63803C2.15947 43.3331 1.77146 42.9451 1.77146 42.4665V7.79997H34.701V42.4665C34.701 42.9451 34.313 43.3331 33.8344 43.3331H31.2347C30.7561 43.3331 30.3681 43.7212 30.3681 44.1998C30.3681 44.6784 30.7561 45.0665 31.2347 45.0665H33.8344C35.2701 45.0665 36.4341 43.9023 36.4341 42.4665V2.59999C36.4341 1.16416 35.2701 0 33.8344 0V0ZM1.77146 6.06664V2.59999C1.77146 2.12138 2.15947 1.73333 2.63803 1.73333H33.8344C34.313 1.73333 34.701 2.12138 34.701 2.59999V6.06664H1.77146Z" fill="#FFBB01"/>
<path d="M24.302 32.0665C22.8665 32.0665 21.7026 33.2307 21.7026 34.6665C21.7026 36.1024 22.8665 37.2665 24.302 37.2665C25.7375 37.2665 26.9014 36.1024 26.9014 34.6665C26.9014 33.2307 25.7375 32.0665 24.302 32.0665ZM24.302 35.5332C23.8235 35.5332 23.4355 35.1451 23.4355 34.6665C23.4355 34.1879 23.8235 33.7999 24.302 33.7999C24.7805 33.7999 25.1685 34.1879 25.1685 34.6665C25.1685 35.1451 24.7805 35.5332 24.302 35.5332Z" fill="#FFBB01"/>
<path d="M31.2348 34.6665C31.2335 33.7033 30.7004 32.8193 29.8482 32.3699C30.1317 31.4491 29.8829 30.4474 29.2021 29.7661C28.5209 29.0852 27.5193 28.8364 26.5986 29.1199C26.1475 28.2702 25.2645 27.7386 24.3023 27.7386C23.3401 27.7386 22.457 28.2702 22.006 29.1199C21.0852 28.8364 20.0837 29.0852 19.4025 29.7661C18.7216 30.4474 18.4728 31.4491 18.7563 32.3699C17.9063 32.821 17.3752 33.7042 17.3752 34.6665C17.3752 35.6288 17.9063 36.5123 18.7563 36.963C18.4728 37.8817 18.7195 38.8817 19.3974 39.563C19.5666 39.7319 19.7591 39.8749 19.9694 39.9879V51.1331C19.9711 51.483 20.1831 51.7974 20.5068 51.9303C20.8292 52.0662 21.202 51.9942 21.4512 51.7484L24.3023 48.8885L27.1533 51.7484C27.3166 51.9109 27.5384 52.001 27.7685 51.9997C27.8824 52.0027 27.9949 51.979 28.0977 51.9303C28.4214 51.7974 28.6334 51.483 28.6351 51.1331V39.9963C28.8454 39.8834 29.0379 39.7403 29.2072 39.5719C29.885 38.8902 30.1317 37.8906 29.8482 36.9719C30.7029 36.5208 31.2369 35.633 31.2348 34.6665V34.6665ZM24.9175 47.0511C24.755 46.8869 24.5333 46.7947 24.3023 46.7947C24.0712 46.7947 23.8495 46.8869 23.687 47.0511L21.7026 49.0443V40.2913L22.006 40.213C22.457 41.0632 23.3401 41.5943 24.3023 41.5943C25.2645 41.5943 26.1475 41.0632 26.5986 40.213L26.902 40.2913V49.0443L24.9175 47.0511ZM28.6351 35.5331H28.4879C28.135 35.5314 27.8159 35.7439 27.6818 36.0705C27.5485 36.3951 27.6238 36.7679 27.8726 37.0151L27.9767 37.1192C28.3127 37.4573 28.3127 38.0032 27.9767 38.3413C27.8811 38.4416 27.7618 38.5161 27.6298 38.558H27.4999C27.2269 38.6003 26.9502 38.5102 26.7547 38.3151L26.6506 38.211C26.4027 37.9613 26.0282 37.886 25.7032 38.021C25.3779 38.156 25.1667 38.4746 25.1688 38.8267V38.9998C25.1688 39.4784 24.7808 39.8664 24.3023 39.8664C23.8237 39.8664 23.4357 39.4784 23.4357 38.9998V38.8525C23.4374 38.4996 23.225 38.1805 22.8983 38.0464C22.7938 38.0049 22.6817 37.9846 22.5691 37.9858C22.339 37.9846 22.1172 38.0751 21.9539 38.2372L21.8498 38.3413C21.6543 38.5364 21.3776 38.6265 21.1047 38.5838H20.9748C20.8428 38.5423 20.7235 38.4678 20.6278 38.3671C20.2919 38.029 20.2919 37.4831 20.6278 37.145L20.7408 37.0413C20.9896 36.7938 21.0649 36.4209 20.9312 36.0964C20.7971 35.7701 20.4785 35.5572 20.1256 35.5594H19.9694C19.4909 35.5594 19.1029 35.1713 19.1029 34.6927C19.1029 34.2137 19.4909 33.826 19.9694 33.826H20.1167C20.4696 33.8277 20.7886 33.6149 20.9227 33.2886C21.056 32.964 20.9807 32.5912 20.7319 32.3436L20.6278 32.24C20.2881 31.9023 20.2864 31.3534 20.6236 31.0136C20.9613 30.6738 21.5101 30.6717 21.8498 31.0094L21.9539 31.1219C22.201 31.3708 22.5742 31.4461 22.8983 31.3124C23.225 31.1782 23.4374 30.8596 23.4357 30.5066V30.3331C23.4357 29.8545 23.8237 29.4665 24.3023 29.4665C24.7808 29.4665 25.1688 29.8545 25.1688 30.3331V30.4804C25.1671 30.8338 25.3796 31.1524 25.7062 31.2866C26.0303 31.4199 26.4035 31.3449 26.6506 31.0957L26.7547 30.992C27.092 30.6522 27.6412 30.6501 27.9809 30.9874C28.3207 31.3251 28.3224 31.8739 27.9852 32.2137L27.8726 32.3178C27.6238 32.565 27.5485 32.9382 27.6818 33.2624C27.8159 33.589 28.135 33.8015 28.4879 33.7998H28.6351C29.1137 33.7998 29.5017 34.1878 29.5017 34.6665C29.5017 35.1451 29.1137 35.5331 28.6351 35.5331V35.5331Z" fill="#FFBB01"/>
</svg>
