<svg width="52" height="52" viewBox="0 0 52 52" fill="none" xmlns="http://www.w3.org/2000/svg">
<path d="M51.1332 25.5593H31.3125C30.8339 25.5593 30.4458 25.954 30.4458 26.4407C30.4458 26.9274 30.8339 27.322 31.3125 27.322H50.2666V36.1356H45.9332V29.9661C45.9332 29.4794 45.5452 29.0847 45.0666 29.0847C44.588 29.0847 44.1999 29.4794 44.1999 29.9661V36.1356H20.8V27.322H26C26.4786 27.322 26.8666 26.9274 26.8666 26.4407C26.8666 25.954 26.4786 25.5593 26 25.5593H19.9333C19.4547 25.5593 19.0666 25.954 19.0666 26.4407V37.0169C19.0666 37.5037 19.4547 37.8983 19.9333 37.8983H27.7333V39.661H19.9333C19.4547 39.661 19.0666 40.0556 19.0666 40.5424V46.7119H16.4666V45.8305C16.4666 45.3438 16.0786 44.9491 15.6 44.9491H13V40.5424C13 40.0556 12.6119 39.661 12.1333 39.661C11.6547 39.661 11.2666 40.0556 11.2666 40.5424V45.8305C11.2666 46.3172 11.6547 46.7119 12.1333 46.7119H14.7333V48.4746H6.06666V46.7119H8.66665C9.14526 46.7119 9.53332 46.3172 9.53332 45.8305V40.5424C9.53332 40.0556 9.14526 39.661 8.66665 39.661C8.18804 39.661 7.79999 40.0556 7.79999 40.5424V44.9491H5.19999C4.72138 44.9491 4.33333 45.3438 4.33333 45.8305V46.7119H0.866665C0.388053 46.7119 0 47.1065 0 47.5932C0 48.0799 0.388053 48.4746 0.866665 48.4746H4.33333V49.3559C4.33333 49.8426 4.72138 50.2373 5.19999 50.2373H15.6C16.0786 50.2373 16.4666 49.8426 16.4666 49.3559V48.4746H19.0666V51.1186C19.0666 51.6054 19.4547 52 19.9333 52H51.1332C51.6118 52 51.9999 51.6054 51.9999 51.1186V40.5424C51.9999 40.0556 51.6118 39.661 51.1332 39.661H43.3333V37.8983H51.1332C51.6118 37.8983 51.9999 37.5037 51.9999 37.0169V26.4407C51.9999 25.954 51.6118 25.5593 51.1332 25.5593ZM50.2666 50.2373H20.8V41.4237H44.1999V47.5932C44.1999 48.0799 44.588 48.4746 45.0666 48.4746C45.5452 48.4746 45.9332 48.0799 45.9332 47.5932V41.4237H50.2666V50.2373ZM41.5999 39.661H29.4666V37.8983H41.5999V39.661Z" fill="#FFBB01"/>
<path d="M25.9996 29.0847C24.5639 29.0847 23.3999 30.2686 23.3999 31.7288C23.3999 33.1894 24.5639 34.3729 25.9996 34.3729C27.4352 34.3729 28.5992 33.1894 28.5992 31.7288C28.5992 30.2686 27.4352 29.0847 25.9996 29.0847ZM25.9996 32.6101C25.521 32.6101 25.133 32.2155 25.133 31.7288C25.133 31.2421 25.521 30.8474 25.9996 30.8474C26.4781 30.8474 26.8661 31.2421 26.8661 31.7288C26.8661 32.2155 26.4781 32.6101 25.9996 32.6101Z" fill="#FFBB01"/>
<path d="M31.2001 34.3729C31.6786 34.3729 32.0666 33.9782 32.0666 33.4915V29.9661C32.0666 29.4793 31.6786 29.0847 31.2001 29.0847C30.7215 29.0847 30.3335 29.4793 30.3335 29.9661V33.4915C30.3335 33.9782 30.7215 34.3729 31.2001 34.3729Z" fill="#FFBB01"/>
<path d="M35.5332 33.4915V29.9661C35.5332 29.4793 35.1452 29.0847 34.6666 29.0847C34.1881 29.0847 33.8 29.4793 33.8 29.9661V33.4915C33.8 33.9782 34.1881 34.3729 34.6666 34.3729C35.1452 34.3729 35.5332 33.9782 35.5332 33.4915Z" fill="#FFBB01"/>
<path d="M38.9997 33.4915V29.9661C38.9997 29.4793 38.6117 29.0847 38.1332 29.0847C37.6546 29.0847 37.2666 29.4793 37.2666 29.9661V33.4915C37.2666 33.9782 37.6546 34.3729 38.1332 34.3729C38.6117 34.3729 38.9997 33.9782 38.9997 33.4915Z" fill="#FFBB01"/>
<path d="M42.4663 33.4915V29.9661C42.4663 29.4793 42.0783 29.0847 41.5997 29.0847C41.1212 29.0847 40.7332 29.4793 40.7332 29.9661V33.4915C40.7332 33.9782 41.1212 34.3729 41.5997 34.3729C42.0783 34.3729 42.4663 33.9782 42.4663 33.4915Z" fill="#FFBB01"/>
<path d="M27.7327 44.9492C27.2541 44.9492 26.8661 45.3439 26.8661 45.8306C26.8661 46.3173 26.4781 46.7119 25.9996 46.7119C25.521 46.7119 25.133 46.3173 25.133 45.8306C25.133 45.3439 25.521 44.9492 25.9996 44.9492C26.4781 44.9492 26.8661 44.5546 26.8661 44.0679C26.8661 43.5812 26.4781 43.1865 25.9996 43.1865C24.5639 43.1865 23.3999 44.3704 23.3999 45.8306C23.3999 47.2912 24.5639 48.4747 25.9996 48.4747C27.4352 48.4747 28.5992 47.2912 28.5992 45.8306C28.5992 45.3439 28.2112 44.9492 27.7327 44.9492Z" fill="#FFBB01"/>
<path d="M31.2001 43.1865C30.7215 43.1865 30.3335 43.5812 30.3335 44.0679V47.5933C30.3335 48.08 30.7215 48.4747 31.2001 48.4747C31.6786 48.4747 32.0666 48.08 32.0666 47.5933V44.0679C32.0666 43.5812 31.6786 43.1865 31.2001 43.1865Z" fill="#FFBB01"/>
<path d="M34.6666 43.1865C34.1881 43.1865 33.8 43.5812 33.8 44.0679V47.5933C33.8 48.08 34.1881 48.4747 34.6666 48.4747C35.1452 48.4747 35.5332 48.08 35.5332 47.5933V44.0679C35.5332 43.5812 35.1452 43.1865 34.6666 43.1865Z" fill="#FFBB01"/>
<path d="M38.1332 43.1865C37.6546 43.1865 37.2666 43.5812 37.2666 44.0679V47.5933C37.2666 48.08 37.6546 48.4747 38.1332 48.4747C38.6117 48.4747 38.9997 48.08 38.9997 47.5933V44.0679C38.9997 43.5812 38.6117 43.1865 38.1332 43.1865Z" fill="#FFBB01"/>
<path d="M41.5997 43.1865C41.1212 43.1865 40.7332 43.5812 40.7332 44.0679V47.5933C40.7332 48.08 41.1212 48.4747 41.5997 48.4747C42.0783 48.4747 42.4663 48.08 42.4663 47.5933V44.0679C42.4663 43.5812 42.0783 43.1865 41.5997 43.1865Z" fill="#FFBB01"/>
<path d="M6.569 31.5615C6.68368 31.6131 6.80767 31.6398 6.93293 31.6407C7.33453 31.6346 7.67899 31.3485 7.76575 30.95C7.85207 30.551 7.65826 30.1443 7.29687 29.9662C3.22295 28.0675 0.999157 23.5398 1.95427 19.0869C2.90895 14.6341 6.78482 11.459 11.2663 11.4577C12.1456 11.4573 13.0207 11.5816 13.8663 11.8278C14.2979 11.9548 14.7528 11.725 14.9149 11.2993C17.0959 5.54643 22.5367 1.75505 28.5996 1.7628C35.505 1.79722 41.4717 6.67739 42.9863 13.529C43.0637 13.8823 43.3456 14.1513 43.6968 14.2076C47.4791 14.8222 50.2632 18.1389 50.2662 22.034C50.2624 22.2905 50.245 22.5465 50.2141 22.8009C50.1824 23.0376 50.2467 23.2777 50.3919 23.4653C50.5374 23.6529 50.7516 23.7726 50.9856 23.7967C51.2171 23.8212 51.4485 23.7502 51.6275 23.5992C51.807 23.4485 51.9191 23.2308 51.939 22.9949C51.9771 22.6761 51.9974 22.3554 51.9995 22.034C52.0173 17.4895 48.9116 13.5492 44.5461 12.577C42.6431 5.19698 36.1021 0.0379558 28.5996 8.50162e-05C22.0894 -0.0210021 16.1857 3.88227 13.5628 9.94202C12.8083 9.77719 12.0381 9.69414 11.2663 9.695C5.97486 9.70059 1.40033 13.4502 0.270871 18.7074C-0.858164 23.9645 1.76172 29.3125 6.569 31.5615V31.5615Z" fill="#FFBB01"/>
<path d="M13.8667 32.2667C13.9382 32.2792 14.0118 32.2792 14.0833 32.2667C15.0713 32.0111 16.0191 31.6165 16.8996 31.0945C17.0989 30.9766 17.2436 30.7829 17.302 30.5565C17.3604 30.3297 17.3278 30.0892 17.2115 29.8869C16.9707 29.4703 16.4452 29.3287 16.0331 29.5697C15.2867 30.0096 14.4849 30.3448 13.6501 30.5656C13.1715 30.6262 12.8322 31.0704 12.8918 31.5571C12.9515 32.0438 13.3881 32.389 13.8667 32.3283V32.2667Z" fill="#FFBB01"/>
<path d="M10.3995 37.8983C10.8781 37.8983 11.2661 37.5036 11.2661 37.0169V23.1799L13.1467 26.0443C13.3063 26.2904 13.5762 26.4393 13.8661 26.4406C14.0367 26.4428 14.2034 26.3903 14.3426 26.2909C14.7383 26.0219 14.8466 25.4792 14.5855 25.0747L11.1189 19.7866C11.1189 19.7866 11.1189 19.7866 11.0753 19.7422C10.9111 19.534 10.6622 19.4126 10.3995 19.4126C10.1367 19.4126 9.88784 19.534 9.72365 19.7422C9.72365 19.7422 9.72365 19.7422 9.68006 19.7866L6.2134 25.0747C6.00181 25.4758 6.12538 25.9746 6.49862 26.2259C6.87144 26.4772 7.37121 26.3985 7.6522 26.0443L9.53279 23.1799V37.0169C9.53279 37.5036 9.92085 37.8983 10.3995 37.8983Z" fill="#FFBB01"/>
<path d="M32.5432 16.0142C32.1459 15.7487 31.6118 15.8589 31.3473 16.2612L29.4667 19.1256V8.81361C29.4667 8.32688 29.0787 7.93225 28.6001 7.93225C28.1215 7.93225 27.7334 8.32688 27.7334 8.81361V19.1256L25.8528 16.2612C25.6971 15.9664 25.3911 15.7866 25.0623 15.7969C24.7335 15.8072 24.439 16.0056 24.3015 16.3094C24.1644 16.6133 24.2079 16.97 24.414 17.2308L27.8807 22.5189C28.0419 22.7625 28.3115 22.9084 28.6001 22.9084C28.8887 22.9084 29.1582 22.7625 29.3195 22.5189L32.7861 17.2308C33.0472 16.8263 32.9389 16.2832 32.5432 16.0142Z" fill="#FFBB01"/>
</svg>
