<svg width="20" height="20" viewBox="0 0 20 20" fill="none" xmlns="http://www.w3.org/2000/svg">
<path d="M20.0001 4.13681C18.742 4.19348 18.7694 4.18886 18.6272 4.20049L19.3723 2.12065C19.3723 2.12065 17.0466 2.95691 16.457 3.1065C14.9085 1.74614 12.6068 1.68603 10.9613 2.67458C9.61383 3.48429 8.89056 4.87479 9.1318 6.50004C6.50927 6.14432 4.29963 4.92922 2.55509 2.88085L2.00333 2.2331L1.59104 2.97317C1.06995 3.90832 0.896914 4.97755 1.10367 5.98384C1.18851 6.39668 1.33271 6.79043 1.53244 7.15912L1.05912 6.97984L1.00296 7.75287C0.946048 8.53812 1.21354 9.45478 1.7186 10.2047C1.86082 10.4159 2.04392 10.6478 2.27601 10.8766L2.03141 10.8399L2.32987 11.7257C2.72218 12.8895 3.537 13.7899 4.59444 14.2904C3.53837 14.7285 2.68525 15.008 1.28296 15.4588L0 15.8711L1.185 16.5043C1.63682 16.7458 3.23335 17.5522 4.81081 17.7942C8.31729 18.3317 12.2652 17.8939 14.923 15.5543C17.1616 13.5836 17.8962 10.7804 17.7436 7.86324C17.7205 7.42161 17.8443 7.00013 18.0921 6.67663C18.5885 6.02888 19.997 4.14113 20.0001 4.13681V4.13681ZM17.1551 5.99055C16.7435 6.52763 16.5374 7.21355 16.5743 7.9217C16.7283 10.8642 15.9092 13.1462 14.1396 14.7038C12.0725 16.5236 8.73828 17.2378 4.99223 16.6635C4.31383 16.5595 3.61268 16.3267 3.03239 16.0942C4.20808 15.6988 5.11598 15.3464 6.5822 14.668L8.62902 13.7211L6.36919 13.5797C5.28673 13.512 4.38539 12.9992 3.83134 12.1667C4.12553 12.15 4.40919 12.1035 4.69163 12.0265L6.84694 11.4398L4.67363 10.9195C3.61756 10.6667 3.0156 10.0491 2.69654 9.57544C2.48704 9.26417 2.35017 8.94529 2.26807 8.65133C2.48597 8.70845 2.74003 8.74917 3.14973 8.78884L5.1613 8.98333L3.56752 7.76808C2.41914 6.89259 1.95893 5.57727 2.2963 4.3128C5.8803 7.94631 10.0884 7.67322 10.512 7.76927C10.4187 6.88409 10.4163 6.882 10.3919 6.79773C9.84943 4.92341 11.0382 3.9717 11.5744 3.64955C12.6944 2.97675 14.4722 2.87533 15.7036 3.98378C15.9696 4.22302 16.3292 4.31713 16.6659 4.23539C16.968 4.16201 17.2159 4.08431 17.4587 3.99974L16.9533 5.41037L17.5985 5.41082C17.4767 5.57041 17.3307 5.76146 17.1551 5.99055Z" fill="white"/>
</svg>
