<svg width="16" height="19" viewBox="0 0 16 19" fill="none" xmlns="http://www.w3.org/2000/svg">
<path d="M7.93183 10.1989C7.9513 10.1989 7.97078 10.1989 7.99415 10.1989C8.00194 10.1989 8.00973 10.1989 8.01752 10.1989C8.02921 10.1989 8.04479 10.1989 8.05648 10.1989C9.19779 10.1803 10.121 9.79637 10.8026 9.06205C12.3023 7.44432 12.053 4.67106 12.0258 4.40641C11.9284 2.41966 10.9468 1.46915 10.1365 1.02558C9.53278 0.69383 8.82774 0.51491 8.04089 0.5H8.01363C8.00973 0.5 8.00194 0.5 7.99805 0.5H7.97468C7.5423 0.5 6.69313 0.567095 5.87902 1.01067C5.06102 1.45424 4.06383 2.40475 3.96645 4.40641C3.93918 4.67106 3.68988 7.44432 5.18956 9.06205C5.86734 9.79637 6.79051 10.1803 7.93183 10.1989ZM5.00648 4.4996C5.00648 4.48842 5.01038 4.47724 5.01038 4.46978C5.13892 1.79717 7.12161 1.51015 7.97078 1.51015H7.98636C7.99415 1.51015 8.00584 1.51015 8.01752 1.51015C9.06924 1.53252 10.8572 1.94254 10.9779 4.46978C10.9779 4.48096 10.9779 4.49215 10.9818 4.4996C10.9857 4.52569 11.2584 7.06039 10.0197 8.39483C9.52889 8.92413 8.87448 9.18506 8.01363 9.19251C8.00584 9.19251 8.00194 9.19251 7.99415 9.19251C7.98636 9.19251 7.98247 9.19251 7.97468 9.19251C7.11772 9.18506 6.45942 8.92413 5.97251 8.39483C4.73771 7.06784 5.00259 4.52197 5.00648 4.4996Z" fill="#949494"/>
<path d="M15.9989 14.7987C15.9989 14.795 15.9989 14.7912 15.9989 14.7875C15.9989 14.7577 15.995 14.7279 15.995 14.6943C15.9716 13.9563 15.921 12.2304 14.2305 11.6788C14.2188 11.675 14.2032 11.6713 14.1915 11.6676C12.4347 11.2389 10.974 10.2698 10.9584 10.2586C10.7208 10.0983 10.3936 10.1542 10.2261 10.3816C10.0586 10.609 10.1171 10.9221 10.3547 11.0824C10.4209 11.1271 11.9712 12.1596 13.911 12.6367C14.8186 12.9461 14.9199 13.8743 14.9472 14.7241C14.9472 14.7577 14.9472 14.7875 14.9511 14.8173C14.955 15.1528 14.9316 15.6709 14.8693 15.9691C14.2382 16.312 11.7648 17.4974 8.00193 17.4974C4.25469 17.4974 1.76561 16.3083 1.13069 15.9654C1.06836 15.6672 1.0411 15.1491 1.04889 14.8136C1.04889 14.7838 1.05278 14.754 1.05278 14.7204C1.08005 13.8705 1.18133 12.9424 2.08892 12.633C4.02876 12.1559 5.57908 11.1197 5.6453 11.0786C5.88291 10.9184 5.94134 10.6053 5.77384 10.3779C5.60635 10.1505 5.27914 10.0946 5.04153 10.2549C5.02595 10.2661 3.57302 11.2352 1.80846 11.6639C1.79288 11.6676 1.7812 11.6713 1.76951 11.675C0.0789655 12.2304 0.0283271 13.9563 0.00495551 14.6906C0.00495551 14.7241 0.00495542 14.754 0.00106015 14.7838C0.00106015 14.7875 0.00106015 14.7912 0.00106015 14.795C-0.00283511 14.9888 -0.00673029 15.984 0.199719 16.4835C0.238671 16.5804 0.308786 16.6624 0.402272 16.7183C0.51913 16.7929 3.31983 18.5001 8.00583 18.5001C12.6918 18.5001 15.4925 16.7892 15.6094 16.7183C15.699 16.6624 15.773 16.5804 15.8119 16.4835C16.0067 15.9878 16.0028 14.9925 15.9989 14.7987Z" fill="#949494"/>
</svg>
